<mxfile host="app.diagrams.net" modified="2020-09-24T01:32:33.820Z" agent="5.0 (Windows NT 10.0; Win64; x64) AppleWebKit/537.36 (KHTML, like Gecko) Chrome/85.0.4183.102 Safari/537.36" etag="5ilQubJOqsTSpvI3a_VA" version="13.7.5" type="github">
  <diagram id="WlVGQaM_-Pc7B8bpnj3p" name="Page-1">
    <mxGraphModel dx="1108" dy="450" grid="1" gridSize="10" guides="1" tooltips="1" connect="1" arrows="1" fold="1" page="1" pageScale="1" pageWidth="850" pageHeight="1100" math="0" shadow="0">
      <root>
        <mxCell id="0" />
        <mxCell id="1" parent="0" />
        <mxCell id="S7M4PGTT5A1cn88Cle2m-2" value="" style="rounded=1;whiteSpace=wrap;html=1;" parent="1" vertex="1">
          <mxGeometry x="180" y="70" width="550" height="250" as="geometry" />
        </mxCell>
        <mxCell id="S7M4PGTT5A1cn88Cle2m-16" style="edgeStyle=orthogonalEdgeStyle;rounded=0;orthogonalLoop=1;jettySize=auto;html=1;entryX=0;entryY=0.25;entryDx=0;entryDy=0;" parent="1" target="S7M4PGTT5A1cn88Cle2m-5" edge="1">
          <mxGeometry relative="1" as="geometry">
            <mxPoint x="70" y="173" as="sourcePoint" />
          </mxGeometry>
        </mxCell>
        <mxCell id="S7M4PGTT5A1cn88Cle2m-18" style="edgeStyle=orthogonalEdgeStyle;rounded=0;orthogonalLoop=1;jettySize=auto;html=1;entryX=0.25;entryY=1;entryDx=0;entryDy=0;" parent="1" target="S7M4PGTT5A1cn88Cle2m-6" edge="1">
          <mxGeometry relative="1" as="geometry">
            <mxPoint x="160" y="290" as="targetPoint" />
            <mxPoint x="80" y="220" as="sourcePoint" />
            <Array as="points">
              <mxPoint x="130" y="220" />
              <mxPoint x="130" y="260" />
              <mxPoint x="413" y="260" />
            </Array>
          </mxGeometry>
        </mxCell>
        <mxCell id="S7M4PGTT5A1cn88Cle2m-1" value="Browser" style="shape=umlActor;verticalLabelPosition=bottom;verticalAlign=top;html=1;outlineConnect=0;" parent="1" vertex="1">
          <mxGeometry x="20" y="145" width="50" height="95" as="geometry" />
        </mxCell>
        <mxCell id="S7M4PGTT5A1cn88Cle2m-21" style="edgeStyle=orthogonalEdgeStyle;rounded=0;orthogonalLoop=1;jettySize=auto;html=1;exitX=0;exitY=0;exitDx=0;exitDy=52.5;exitPerimeter=0;entryX=0.956;entryY=0.633;entryDx=0;entryDy=0;entryPerimeter=0;" parent="1" source="S7M4PGTT5A1cn88Cle2m-4" target="S7M4PGTT5A1cn88Cle2m-6" edge="1">
          <mxGeometry relative="1" as="geometry" />
        </mxCell>
        <mxCell id="S7M4PGTT5A1cn88Cle2m-4" value="tracer DB&lt;br&gt;sql server container" style="shape=cylinder3;whiteSpace=wrap;html=1;boundedLbl=1;backgroundOutline=1;size=15;" parent="1" vertex="1">
          <mxGeometry x="570" y="155" width="60" height="80" as="geometry" />
        </mxCell>
        <mxCell id="S7M4PGTT5A1cn88Cle2m-17" style="edgeStyle=orthogonalEdgeStyle;rounded=0;orthogonalLoop=1;jettySize=auto;html=1;exitX=0;exitY=0.5;exitDx=0;exitDy=0;" parent="1" source="S7M4PGTT5A1cn88Cle2m-5" edge="1">
          <mxGeometry relative="1" as="geometry">
            <mxPoint x="70" y="195" as="targetPoint" />
          </mxGeometry>
        </mxCell>
        <mxCell id="S7M4PGTT5A1cn88Cle2m-5" value="tracerUI&lt;br&gt;(Node container)" style="whiteSpace=wrap;html=1;aspect=fixed;" parent="1" vertex="1">
          <mxGeometry x="220" y="150" width="90" height="90" as="geometry" />
        </mxCell>
        <mxCell id="S7M4PGTT5A1cn88Cle2m-19" style="edgeStyle=orthogonalEdgeStyle;rounded=0;orthogonalLoop=1;jettySize=auto;html=1;exitX=0.75;exitY=1;exitDx=0;exitDy=0;" parent="1" source="S7M4PGTT5A1cn88Cle2m-6" edge="1">
          <mxGeometry relative="1" as="geometry">
            <mxPoint x="80" y="230" as="targetPoint" />
            <Array as="points">
              <mxPoint x="458" y="290" />
              <mxPoint x="110" y="290" />
              <mxPoint x="110" y="230" />
            </Array>
          </mxGeometry>
        </mxCell>
        <mxCell id="S7M4PGTT5A1cn88Cle2m-20" style="edgeStyle=orthogonalEdgeStyle;rounded=0;orthogonalLoop=1;jettySize=auto;html=1;exitX=1.011;exitY=0.367;exitDx=0;exitDy=0;entryX=0;entryY=0;entryDx=0;entryDy=27.5;entryPerimeter=0;exitPerimeter=0;" parent="1" source="S7M4PGTT5A1cn88Cle2m-6" target="S7M4PGTT5A1cn88Cle2m-4" edge="1">
          <mxGeometry relative="1" as="geometry" />
        </mxCell>
        <mxCell id="S7M4PGTT5A1cn88Cle2m-6" value="tracerApi&lt;br&gt;(Tomcat container)" style="whiteSpace=wrap;html=1;aspect=fixed;" parent="1" vertex="1">
          <mxGeometry x="390" y="150" width="90" height="90" as="geometry" />
        </mxCell>
        <mxCell id="S7M4PGTT5A1cn88Cle2m-8" value="&lt;font style=&quot;font-size: 20px&quot;&gt;Hosting env&lt;/font&gt;" style="text;html=1;resizable=0;autosize=1;align=center;verticalAlign=middle;points=[];fillColor=none;strokeColor=none;rounded=0;" parent="1" vertex="1">
          <mxGeometry x="375" y="80" width="120" height="20" as="geometry" />
        </mxCell>
      </root>
    </mxGraphModel>
  </diagram>
</mxfile>
